COVER :: http://i.minus.com/iQqsERKgZ3GM7.png

SCREEN :: 
 
http://i.minus.com/ibcroLetuioMD0.png
 
http://i.minus.com/iWA3mzFhAKFCb.png
 
http://i.minus.com/iK9XLRpEF3IV3.png
 
http://i.minus.com/iRmNaJgjqpTfo.png
 
http://i.minus.com/ibw0meqqr4kxlO.png
 
http://i.minus.com/iy400g2yy2Qn6.png


INFO ::

General ::
Format                           : AVI
Format/Info                      : Audio Video Interleave
File size                        : 45.9 MiB
Duration                         : 2mn 24s
Overall bit rate                 : 2 657 Kbps


Video Info ::
ID                               : 0
Format                           : AVC
Format/Info                      : Advanced Video Codec
Format profile                   : High@L5.1
Format settings, CABAC           : Yes
Format settings, ReFrames        : 2 frames
Codec ID                         : H264
Duration                         : 10s 0ms
Bit rate                         : 2 455 Kbps
Width                            : 1 280 pixels
Height                           : 544 pixels
Display aspect ratio             : 2.35:1
Frame rate                       : 30.000 fps
Color space                      : YUV
Chroma subsampling               : 4:2:0
Bit depth                        : 8 bits
Scan type                        : Progressive
Bits/(Pixel*Frame)               : 0.118
Stream size                      : 42.4 MiB (92%)


Audio Info ::
ID                               : 1
Format                           : MPEG Audio
Format version                   : Version 1
Format profile                   : Layer 3
Codec ID                         : 55
Codec ID/Hint                    : MP3
Duration                         : 2mn 24s
Bit rate mode                    : Constant
Bit rate                         : 192 Kbps
Channel(s)                       : 2 channels
Sampling rate                    : 44.1 KHz
Compression mode                 : Lossy
Stream size                      : 3.32 MiB (7%)